<mxfile host="Electron" modified="2023-10-16T06:40:14.871Z" agent="Mozilla/5.0 (Windows NT 10.0; Win64; x64) AppleWebKit/537.36 (KHTML, like Gecko) draw.io/21.8.2 Chrome/114.0.5735.289 Electron/25.8.1 Safari/537.36" etag="5X73wPXhIHDS8msyQcku" version="21.8.2" type="device">
  <diagram id="Fqjd-lwi6O4fydthMyqD" name="Page-1">
    <mxGraphModel dx="1723" dy="1167" grid="1" gridSize="10" guides="1" tooltips="1" connect="1" arrows="1" fold="1" page="1" pageScale="1" pageWidth="827" pageHeight="1169" math="0" shadow="0">
      <root>
        <mxCell id="0" />
        <mxCell id="1" parent="0" />
        <mxCell id="5_5ShO6OWAeCaV3ogHmG-1" value="Спасти Василису Премудрую" style="swimlane;horizontal=0;whiteSpace=wrap;html=1;" vertex="1" parent="1">
          <mxGeometry x="40" y="40" width="2240" height="1080" as="geometry" />
        </mxCell>
        <mxCell id="5_5ShO6OWAeCaV3ogHmG-2" value="Иван Царевич" style="swimlane;horizontal=0;whiteSpace=wrap;html=1;" vertex="1" parent="5_5ShO6OWAeCaV3ogHmG-1">
          <mxGeometry x="20" width="2220" height="280" as="geometry" />
        </mxCell>
        <mxCell id="5_5ShO6OWAeCaV3ogHmG-41" value="" style="edgeStyle=orthogonalEdgeStyle;rounded=0;orthogonalLoop=1;jettySize=auto;html=1;" edge="1" parent="5_5ShO6OWAeCaV3ogHmG-2" source="5_5ShO6OWAeCaV3ogHmG-7" target="5_5ShO6OWAeCaV3ogHmG-8">
          <mxGeometry relative="1" as="geometry" />
        </mxCell>
        <mxCell id="5_5ShO6OWAeCaV3ogHmG-7" value="Василиса Премудрая оказалась у Кощея Бессмертного" style="ellipse;whiteSpace=wrap;html=1;aspect=fixed;" vertex="1" parent="5_5ShO6OWAeCaV3ogHmG-2">
          <mxGeometry x="60" y="115" width="50" height="50" as="geometry" />
        </mxCell>
        <mxCell id="5_5ShO6OWAeCaV3ogHmG-8" value="Прийти к старому дубу" style="rounded=1;whiteSpace=wrap;html=1;" vertex="1" parent="5_5ShO6OWAeCaV3ogHmG-2">
          <mxGeometry x="170" y="110" width="120" height="60" as="geometry" />
        </mxCell>
        <mxCell id="5_5ShO6OWAeCaV3ogHmG-45" style="edgeStyle=orthogonalEdgeStyle;rounded=0;orthogonalLoop=1;jettySize=auto;html=1;exitX=1;exitY=0.5;exitDx=0;exitDy=0;entryX=0;entryY=0.5;entryDx=0;entryDy=0;" edge="1" parent="5_5ShO6OWAeCaV3ogHmG-2" source="5_5ShO6OWAeCaV3ogHmG-11" target="5_5ShO6OWAeCaV3ogHmG-12">
          <mxGeometry relative="1" as="geometry" />
        </mxCell>
        <mxCell id="5_5ShO6OWAeCaV3ogHmG-11" value="Открыть ларец" style="rounded=1;whiteSpace=wrap;html=1;" vertex="1" parent="5_5ShO6OWAeCaV3ogHmG-2">
          <mxGeometry x="320" y="110" width="120" height="60" as="geometry" />
        </mxCell>
        <mxCell id="5_5ShO6OWAeCaV3ogHmG-12" value="Ларец открыт" style="whiteSpace=wrap;html=1;aspect=fixed;strokeWidth=2;strokeColor=#d2d1d1;shape=doubleEllipse;perimeter=ellipsePerimeter;" vertex="1" parent="5_5ShO6OWAeCaV3ogHmG-2">
          <mxGeometry x="503" y="110" width="60" height="60" as="geometry" />
        </mxCell>
        <mxCell id="5_5ShO6OWAeCaV3ogHmG-48" style="edgeStyle=orthogonalEdgeStyle;rounded=0;orthogonalLoop=1;jettySize=auto;html=1;exitX=1;exitY=0.5;exitDx=0;exitDy=0;entryX=0;entryY=0.5;entryDx=0;entryDy=0;" edge="1" parent="5_5ShO6OWAeCaV3ogHmG-2" source="5_5ShO6OWAeCaV3ogHmG-14" target="5_5ShO6OWAeCaV3ogHmG-15">
          <mxGeometry relative="1" as="geometry" />
        </mxCell>
        <mxCell id="5_5ShO6OWAeCaV3ogHmG-14" value="Подстрелить зайца" style="rounded=1;whiteSpace=wrap;html=1;" vertex="1" parent="5_5ShO6OWAeCaV3ogHmG-2">
          <mxGeometry x="630" y="110" width="120" height="60" as="geometry" />
        </mxCell>
        <mxCell id="5_5ShO6OWAeCaV3ogHmG-15" value="Заяц подстрелен" style="whiteSpace=wrap;html=1;aspect=fixed;strokeWidth=2;strokeColor=#d2d1d1;shape=doubleEllipse;perimeter=ellipsePerimeter;" vertex="1" parent="5_5ShO6OWAeCaV3ogHmG-2">
          <mxGeometry x="813" y="110" width="60" height="60" as="geometry" />
        </mxCell>
        <mxCell id="5_5ShO6OWAeCaV3ogHmG-51" style="edgeStyle=orthogonalEdgeStyle;rounded=0;orthogonalLoop=1;jettySize=auto;html=1;exitX=1;exitY=0.5;exitDx=0;exitDy=0;entryX=0;entryY=0.5;entryDx=0;entryDy=0;" edge="1" parent="5_5ShO6OWAeCaV3ogHmG-2" source="5_5ShO6OWAeCaV3ogHmG-17" target="5_5ShO6OWAeCaV3ogHmG-18">
          <mxGeometry relative="1" as="geometry" />
        </mxCell>
        <mxCell id="5_5ShO6OWAeCaV3ogHmG-17" value="Подстрелить селезня" style="rounded=1;whiteSpace=wrap;html=1;" vertex="1" parent="5_5ShO6OWAeCaV3ogHmG-2">
          <mxGeometry x="937.5" y="105" width="120" height="60" as="geometry" />
        </mxCell>
        <mxCell id="5_5ShO6OWAeCaV3ogHmG-18" value="Селезень подстрелен" style="whiteSpace=wrap;html=1;aspect=fixed;strokeWidth=2;strokeColor=#d2d1d1;shape=doubleEllipse;perimeter=ellipsePerimeter;" vertex="1" parent="5_5ShO6OWAeCaV3ogHmG-2">
          <mxGeometry x="1120.5" y="105" width="60" height="60" as="geometry" />
        </mxCell>
        <mxCell id="5_5ShO6OWAeCaV3ogHmG-55" style="edgeStyle=orthogonalEdgeStyle;rounded=0;orthogonalLoop=1;jettySize=auto;html=1;entryX=0;entryY=0.5;entryDx=0;entryDy=0;" edge="1" parent="5_5ShO6OWAeCaV3ogHmG-2" source="5_5ShO6OWAeCaV3ogHmG-23" target="5_5ShO6OWAeCaV3ogHmG-24">
          <mxGeometry relative="1" as="geometry">
            <mxPoint x="1550" y="135" as="targetPoint" />
          </mxGeometry>
        </mxCell>
        <mxCell id="5_5ShO6OWAeCaV3ogHmG-23" value="Разбить яйцо" style="rounded=1;whiteSpace=wrap;html=1;" vertex="1" parent="5_5ShO6OWAeCaV3ogHmG-2">
          <mxGeometry x="1400" y="105" width="120" height="60" as="geometry" />
        </mxCell>
        <mxCell id="5_5ShO6OWAeCaV3ogHmG-56" value="" style="edgeStyle=orthogonalEdgeStyle;rounded=0;orthogonalLoop=1;jettySize=auto;html=1;" edge="1" parent="5_5ShO6OWAeCaV3ogHmG-2" source="5_5ShO6OWAeCaV3ogHmG-24" target="5_5ShO6OWAeCaV3ogHmG-25">
          <mxGeometry relative="1" as="geometry" />
        </mxCell>
        <mxCell id="5_5ShO6OWAeCaV3ogHmG-24" value="Достать иглу" style="rounded=1;whiteSpace=wrap;html=1;" vertex="1" parent="5_5ShO6OWAeCaV3ogHmG-2">
          <mxGeometry x="1570" y="105" width="120" height="60" as="geometry" />
        </mxCell>
        <mxCell id="5_5ShO6OWAeCaV3ogHmG-57" value="" style="edgeStyle=orthogonalEdgeStyle;rounded=0;orthogonalLoop=1;jettySize=auto;html=1;" edge="1" parent="5_5ShO6OWAeCaV3ogHmG-2" source="5_5ShO6OWAeCaV3ogHmG-25" target="5_5ShO6OWAeCaV3ogHmG-38">
          <mxGeometry relative="1" as="geometry" />
        </mxCell>
        <mxCell id="5_5ShO6OWAeCaV3ogHmG-25" value="Сломать иглу" style="rounded=1;whiteSpace=wrap;html=1;" vertex="1" parent="5_5ShO6OWAeCaV3ogHmG-2">
          <mxGeometry x="1730" y="105" width="120" height="60" as="geometry" />
        </mxCell>
        <mxCell id="5_5ShO6OWAeCaV3ogHmG-58" style="edgeStyle=orthogonalEdgeStyle;rounded=0;orthogonalLoop=1;jettySize=auto;html=1;exitX=1;exitY=0.5;exitDx=0;exitDy=0;entryX=0;entryY=0.5;entryDx=0;entryDy=0;" edge="1" parent="5_5ShO6OWAeCaV3ogHmG-2" source="5_5ShO6OWAeCaV3ogHmG-38" target="5_5ShO6OWAeCaV3ogHmG-40">
          <mxGeometry relative="1" as="geometry" />
        </mxCell>
        <mxCell id="5_5ShO6OWAeCaV3ogHmG-38" value="Кощеё мёртв" style="whiteSpace=wrap;html=1;aspect=fixed;strokeWidth=2;strokeColor=#d2d1d1;shape=doubleEllipse;perimeter=ellipsePerimeter;" vertex="1" parent="5_5ShO6OWAeCaV3ogHmG-2">
          <mxGeometry x="1900" y="105" width="60" height="60" as="geometry" />
        </mxCell>
        <mxCell id="5_5ShO6OWAeCaV3ogHmG-40" value="Василиса премудрая свободна" style="ellipse;whiteSpace=wrap;html=1;aspect=fixed;" vertex="1" parent="5_5ShO6OWAeCaV3ogHmG-2">
          <mxGeometry x="2120" y="110" width="50" height="50" as="geometry" />
        </mxCell>
        <mxCell id="5_5ShO6OWAeCaV3ogHmG-3" value="Медведь" style="swimlane;horizontal=0;whiteSpace=wrap;html=1;" vertex="1" parent="5_5ShO6OWAeCaV3ogHmG-1">
          <mxGeometry x="20" y="280" width="2220" height="200" as="geometry" />
        </mxCell>
        <mxCell id="5_5ShO6OWAeCaV3ogHmG-43" value="" style="edgeStyle=orthogonalEdgeStyle;rounded=0;orthogonalLoop=1;jettySize=auto;html=1;entryX=0;entryY=0.5;entryDx=0;entryDy=0;" edge="1" parent="5_5ShO6OWAeCaV3ogHmG-3" source="5_5ShO6OWAeCaV3ogHmG-9" target="5_5ShO6OWAeCaV3ogHmG-61">
          <mxGeometry relative="1" as="geometry">
            <mxPoint x="330" y="130" as="targetPoint" />
          </mxGeometry>
        </mxCell>
        <mxCell id="5_5ShO6OWAeCaV3ogHmG-9" value="Вырвать дуб с корнем" style="rounded=1;whiteSpace=wrap;html=1;" vertex="1" parent="5_5ShO6OWAeCaV3ogHmG-3">
          <mxGeometry x="170" y="70" width="120" height="60" as="geometry" />
        </mxCell>
        <mxCell id="5_5ShO6OWAeCaV3ogHmG-61" value="Ларец упал" style="whiteSpace=wrap;html=1;aspect=fixed;strokeWidth=2;strokeColor=#d2d1d1;shape=doubleEllipse;perimeter=ellipsePerimeter;" vertex="1" parent="5_5ShO6OWAeCaV3ogHmG-3">
          <mxGeometry x="350" y="70" width="60" height="60" as="geometry" />
        </mxCell>
        <mxCell id="5_5ShO6OWAeCaV3ogHmG-4" value="Косой заяц" style="swimlane;horizontal=0;whiteSpace=wrap;html=1;" vertex="1" parent="5_5ShO6OWAeCaV3ogHmG-1">
          <mxGeometry x="20" y="480" width="2220" height="200" as="geometry" />
        </mxCell>
        <mxCell id="5_5ShO6OWAeCaV3ogHmG-13" value="Выпрыгнуть из ларца" style="rounded=1;whiteSpace=wrap;html=1;" vertex="1" parent="5_5ShO6OWAeCaV3ogHmG-4">
          <mxGeometry x="473" y="65" width="120" height="60" as="geometry" />
        </mxCell>
        <mxCell id="5_5ShO6OWAeCaV3ogHmG-5" value="Селезень" style="swimlane;horizontal=0;whiteSpace=wrap;html=1;" vertex="1" parent="5_5ShO6OWAeCaV3ogHmG-1">
          <mxGeometry x="20" y="680" width="2220" height="200" as="geometry" />
        </mxCell>
        <mxCell id="5_5ShO6OWAeCaV3ogHmG-16" value="Вылететь из зайца" style="rounded=1;whiteSpace=wrap;html=1;" vertex="1" parent="5_5ShO6OWAeCaV3ogHmG-5">
          <mxGeometry x="783" y="70" width="120" height="60" as="geometry" />
        </mxCell>
        <mxCell id="5_5ShO6OWAeCaV3ogHmG-6" value="Щука" style="swimlane;horizontal=0;whiteSpace=wrap;html=1;startSize=23;" vertex="1" parent="5_5ShO6OWAeCaV3ogHmG-1">
          <mxGeometry x="20" y="880" width="2220" height="200" as="geometry" />
        </mxCell>
        <mxCell id="5_5ShO6OWAeCaV3ogHmG-52" value="" style="edgeStyle=orthogonalEdgeStyle;rounded=0;orthogonalLoop=1;jettySize=auto;html=1;" edge="1" parent="5_5ShO6OWAeCaV3ogHmG-6" source="5_5ShO6OWAeCaV3ogHmG-19" target="5_5ShO6OWAeCaV3ogHmG-20">
          <mxGeometry relative="1" as="geometry" />
        </mxCell>
        <mxCell id="5_5ShO6OWAeCaV3ogHmG-19" value="Найти выпавшее яйцо в море" style="rounded=1;whiteSpace=wrap;html=1;" vertex="1" parent="5_5ShO6OWAeCaV3ogHmG-6">
          <mxGeometry x="1090" y="85" width="120" height="60" as="geometry" />
        </mxCell>
        <mxCell id="5_5ShO6OWAeCaV3ogHmG-53" value="" style="edgeStyle=orthogonalEdgeStyle;rounded=0;orthogonalLoop=1;jettySize=auto;html=1;" edge="1" parent="5_5ShO6OWAeCaV3ogHmG-6" source="5_5ShO6OWAeCaV3ogHmG-20" target="5_5ShO6OWAeCaV3ogHmG-21">
          <mxGeometry relative="1" as="geometry" />
        </mxCell>
        <mxCell id="5_5ShO6OWAeCaV3ogHmG-20" value="Яйцо найдено" style="whiteSpace=wrap;html=1;aspect=fixed;strokeWidth=2;strokeColor=#d2d1d1;shape=doubleEllipse;perimeter=ellipsePerimeter;" vertex="1" parent="5_5ShO6OWAeCaV3ogHmG-6">
          <mxGeometry x="1273" y="85" width="60" height="60" as="geometry" />
        </mxCell>
        <mxCell id="5_5ShO6OWAeCaV3ogHmG-21" value="Вернуть яйцо Ивану" style="rounded=1;whiteSpace=wrap;html=1;" vertex="1" parent="5_5ShO6OWAeCaV3ogHmG-6">
          <mxGeometry x="1400" y="85" width="120" height="60" as="geometry" />
        </mxCell>
        <mxCell id="5_5ShO6OWAeCaV3ogHmG-22" style="edgeStyle=orthogonalEdgeStyle;rounded=0;orthogonalLoop=1;jettySize=auto;html=1;exitX=0.5;exitY=1;exitDx=0;exitDy=0;entryX=0.5;entryY=0;entryDx=0;entryDy=0;" edge="1" parent="5_5ShO6OWAeCaV3ogHmG-1" source="5_5ShO6OWAeCaV3ogHmG-18" target="5_5ShO6OWAeCaV3ogHmG-19">
          <mxGeometry relative="1" as="geometry" />
        </mxCell>
        <mxCell id="5_5ShO6OWAeCaV3ogHmG-42" style="edgeStyle=orthogonalEdgeStyle;rounded=0;orthogonalLoop=1;jettySize=auto;html=1;exitX=0.5;exitY=1;exitDx=0;exitDy=0;entryX=0.5;entryY=0;entryDx=0;entryDy=0;" edge="1" parent="5_5ShO6OWAeCaV3ogHmG-1" source="5_5ShO6OWAeCaV3ogHmG-8" target="5_5ShO6OWAeCaV3ogHmG-9">
          <mxGeometry relative="1" as="geometry" />
        </mxCell>
        <mxCell id="5_5ShO6OWAeCaV3ogHmG-44" style="edgeStyle=orthogonalEdgeStyle;rounded=0;orthogonalLoop=1;jettySize=auto;html=1;entryX=0.5;entryY=1;entryDx=0;entryDy=0;exitX=0.5;exitY=0;exitDx=0;exitDy=0;" edge="1" parent="5_5ShO6OWAeCaV3ogHmG-1" source="5_5ShO6OWAeCaV3ogHmG-61" target="5_5ShO6OWAeCaV3ogHmG-11">
          <mxGeometry relative="1" as="geometry">
            <mxPoint x="440" y="340" as="sourcePoint" />
          </mxGeometry>
        </mxCell>
        <mxCell id="5_5ShO6OWAeCaV3ogHmG-46" style="edgeStyle=orthogonalEdgeStyle;rounded=0;orthogonalLoop=1;jettySize=auto;html=1;exitX=0.5;exitY=1;exitDx=0;exitDy=0;entryX=0.5;entryY=0;entryDx=0;entryDy=0;" edge="1" parent="5_5ShO6OWAeCaV3ogHmG-1" source="5_5ShO6OWAeCaV3ogHmG-12" target="5_5ShO6OWAeCaV3ogHmG-13">
          <mxGeometry relative="1" as="geometry" />
        </mxCell>
        <mxCell id="5_5ShO6OWAeCaV3ogHmG-47" style="edgeStyle=orthogonalEdgeStyle;rounded=0;orthogonalLoop=1;jettySize=auto;html=1;exitX=1;exitY=0.5;exitDx=0;exitDy=0;entryX=0;entryY=0.5;entryDx=0;entryDy=0;" edge="1" parent="5_5ShO6OWAeCaV3ogHmG-1" source="5_5ShO6OWAeCaV3ogHmG-13" target="5_5ShO6OWAeCaV3ogHmG-14">
          <mxGeometry relative="1" as="geometry">
            <Array as="points">
              <mxPoint x="630" y="575" />
              <mxPoint x="630" y="140" />
            </Array>
          </mxGeometry>
        </mxCell>
        <mxCell id="5_5ShO6OWAeCaV3ogHmG-49" style="edgeStyle=orthogonalEdgeStyle;rounded=0;orthogonalLoop=1;jettySize=auto;html=1;exitX=0.5;exitY=1;exitDx=0;exitDy=0;entryX=0.5;entryY=0;entryDx=0;entryDy=0;" edge="1" parent="5_5ShO6OWAeCaV3ogHmG-1" source="5_5ShO6OWAeCaV3ogHmG-15" target="5_5ShO6OWAeCaV3ogHmG-16">
          <mxGeometry relative="1" as="geometry" />
        </mxCell>
        <mxCell id="5_5ShO6OWAeCaV3ogHmG-50" style="edgeStyle=orthogonalEdgeStyle;rounded=0;orthogonalLoop=1;jettySize=auto;html=1;exitX=1;exitY=0.5;exitDx=0;exitDy=0;entryX=0;entryY=0.5;entryDx=0;entryDy=0;" edge="1" parent="5_5ShO6OWAeCaV3ogHmG-1" source="5_5ShO6OWAeCaV3ogHmG-16" target="5_5ShO6OWAeCaV3ogHmG-17">
          <mxGeometry relative="1" as="geometry">
            <Array as="points">
              <mxPoint x="938" y="780" />
              <mxPoint x="938" y="135" />
            </Array>
          </mxGeometry>
        </mxCell>
        <mxCell id="5_5ShO6OWAeCaV3ogHmG-54" style="edgeStyle=orthogonalEdgeStyle;rounded=0;orthogonalLoop=1;jettySize=auto;html=1;exitX=0.5;exitY=0;exitDx=0;exitDy=0;entryX=0.5;entryY=1;entryDx=0;entryDy=0;" edge="1" parent="5_5ShO6OWAeCaV3ogHmG-1" source="5_5ShO6OWAeCaV3ogHmG-21" target="5_5ShO6OWAeCaV3ogHmG-23">
          <mxGeometry relative="1" as="geometry" />
        </mxCell>
      </root>
    </mxGraphModel>
  </diagram>
</mxfile>
